<svg xmlns="http://www.w3.org/2000/svg" width="275" height="35" viewBox="0 0 275 35">
  <g id="a" transform="translate(-179 -126)">
    <path id="Path_19" data-name="Path 19" d="M0,0H97l20,17.25L97,35H0Z" transform="translate(179 126)" fill="#d12231"/>
    <path id="Path_7928" data-name="Path 7928" d="M5.328,0,3.336-3.42H2.016V0H.924V-8.364h2.7a3.585,3.585,0,0,1,1.6.324,2.256,2.256,0,0,1,.978.876A2.442,2.442,0,0,1,6.528-5.9a2.461,2.461,0,0,1-.5,1.524A2.434,2.434,0,0,1,4.536-3.5L6.636,0ZM2.016-4.3H3.624a1.824,1.824,0,0,0,1.332-.438A1.569,1.569,0,0,0,5.4-5.9a1.5,1.5,0,0,0-.438-1.152,1.906,1.906,0,0,0-1.338-.408H2.016Zm9.072,4.4a3.367,3.367,0,0,1-1.674-.42A2.99,2.99,0,0,1,8.238-1.506,3.661,3.661,0,0,1,7.812-3.3,3.555,3.555,0,0,1,8.25-5.082,3.018,3.018,0,0,1,9.444-6.27a3.464,3.464,0,0,1,1.692-.414,3.464,3.464,0,0,1,1.692.414,3.029,3.029,0,0,1,1.194,1.182A3.547,3.547,0,0,1,14.46-3.3a3.5,3.5,0,0,1-.45,1.794A3.119,3.119,0,0,1,12.792-.312,3.492,3.492,0,0,1,11.088.108Zm0-.96a2.306,2.306,0,0,0,1.1-.276,2.1,2.1,0,0,0,.834-.828A2.652,2.652,0,0,0,13.344-3.3a2.693,2.693,0,0,0-.312-1.344,2.043,2.043,0,0,0-.816-.822,2.277,2.277,0,0,0-1.092-.27,2.266,2.266,0,0,0-1.1.27,1.98,1.98,0,0,0-.8.822,2.781,2.781,0,0,0-.3,1.344,2.856,2.856,0,0,0,.294,1.356,1.954,1.954,0,0,0,.786.822A2.208,2.208,0,0,0,11.088-.852Zm5.9-8.028V0H15.9V-8.88Zm7.86,5.34a6.427,6.427,0,0,1-.036.66H19.56a2.126,2.126,0,0,0,.666,1.518,2.118,2.118,0,0,0,1.47.546,2.019,2.019,0,0,0,1.182-.33,1.747,1.747,0,0,0,.666-.882H24.72A2.827,2.827,0,0,1,23.664-.486,3.187,3.187,0,0,1,21.7.108a3.324,3.324,0,0,1-1.674-.42,2.973,2.973,0,0,1-1.158-1.194,3.7,3.7,0,0,1-.42-1.794,3.756,3.756,0,0,1,.408-1.788A2.864,2.864,0,0,1,20-6.27a3.411,3.411,0,0,1,1.7-.414,3.3,3.3,0,0,1,1.656.408,2.825,2.825,0,0,1,1.11,1.122A3.311,3.311,0,0,1,24.852-3.54Zm-1.128-.228a2.014,2.014,0,0,0-.276-1.074,1.8,1.8,0,0,0-.75-.684,2.339,2.339,0,0,0-1.05-.234,2.024,2.024,0,0,0-1.41.528,2.151,2.151,0,0,0-.666,1.464Zm8.376-4.6a5.164,5.164,0,0,1,2.37.51A3.584,3.584,0,0,1,36.006-6.4a4.474,4.474,0,0,1,.534,2.232,4.44,4.44,0,0,1-.534,2.226A3.522,3.522,0,0,1,34.47-.5,5.268,5.268,0,0,1,32.1,0H29.5V-8.364ZM32.1-.9a3.334,3.334,0,0,0,2.472-.858,3.266,3.266,0,0,0,.852-2.406A3.333,3.333,0,0,0,34.566-6.6,3.3,3.3,0,0,0,32.1-7.476H30.588V-.9ZM43.98-3.54a6.427,6.427,0,0,1-.036.66H38.688a2.126,2.126,0,0,0,.666,1.518,2.118,2.118,0,0,0,1.47.546,2.019,2.019,0,0,0,1.182-.33,1.747,1.747,0,0,0,.666-.882h1.176A2.827,2.827,0,0,1,42.792-.486a3.187,3.187,0,0,1-1.968.594,3.324,3.324,0,0,1-1.674-.42,2.973,2.973,0,0,1-1.158-1.194,3.7,3.7,0,0,1-.42-1.794,3.756,3.756,0,0,1,.408-1.788A2.864,2.864,0,0,1,39.126-6.27a3.411,3.411,0,0,1,1.7-.414,3.3,3.3,0,0,1,1.656.408,2.825,2.825,0,0,1,1.11,1.122A3.311,3.311,0,0,1,43.98-3.54Zm-1.128-.228a2.014,2.014,0,0,0-.276-1.074,1.8,1.8,0,0,0-.75-.684,2.339,2.339,0,0,0-1.05-.234,2.024,2.024,0,0,0-1.41.528A2.151,2.151,0,0,0,38.7-3.768Zm3.9-1.908V-1.8a.922.922,0,0,0,.2.678,1.006,1.006,0,0,0,.708.2h.8V0h-.984a1.958,1.958,0,0,1-1.368-.42A1.8,1.8,0,0,1,45.66-1.8V-5.676h-.852v-.9h.852V-8.232h1.092v1.656h1.716v.9ZM49.38-3.312a3.694,3.694,0,0,1,.408-1.77A2.96,2.96,0,0,1,50.91-6.264a3.077,3.077,0,0,1,1.59-.42,2.918,2.918,0,0,1,1.5.372,2.479,2.479,0,0,1,.948.936v-1.2h1.1V0h-1.1V-1.224a2.573,2.573,0,0,1-.966.954,2.89,2.89,0,0,1-1.494.378A2.981,2.981,0,0,1,50.9-.324a3.03,3.03,0,0,1-1.116-1.212A3.775,3.775,0,0,1,49.38-3.312Zm5.568.012a2.674,2.674,0,0,0-.3-1.3,2.118,2.118,0,0,0-.81-.846,2.207,2.207,0,0,0-1.122-.294,2.209,2.209,0,0,0-1.116.288,2.089,2.089,0,0,0-.8.84,2.674,2.674,0,0,0-.3,1.3A2.735,2.735,0,0,0,50.8-2a2.122,2.122,0,0,0,.8.852,2.174,2.174,0,0,0,1.116.294,2.207,2.207,0,0,0,1.122-.294A2.109,2.109,0,0,0,54.648-2,2.709,2.709,0,0,0,54.948-3.3Zm3.516-4.344a.718.718,0,0,1-.528-.216.718.718,0,0,1-.216-.528.718.718,0,0,1,.216-.528.718.718,0,0,1,.528-.216.685.685,0,0,1,.51.216.729.729,0,0,1,.21.528.729.729,0,0,1-.21.528A.685.685,0,0,1,58.464-7.644Zm.528,1.068V0H57.9V-6.576Zm2.952-2.3V0H60.852V-8.88ZM66.132.108A3.4,3.4,0,0,1,64.776-.15a2.287,2.287,0,0,1-.948-.72,1.916,1.916,0,0,1-.384-1.062h1.128a1.107,1.107,0,0,0,.462.8,1.758,1.758,0,0,0,1.086.312,1.58,1.58,0,0,0,.984-.276.843.843,0,0,0,.36-.7.686.686,0,0,0-.384-.642,5.384,5.384,0,0,0-1.188-.414,8.731,8.731,0,0,1-1.194-.39,2.118,2.118,0,0,1-.792-.588,1.535,1.535,0,0,1-.33-1.026,1.555,1.555,0,0,1,.3-.924,2.034,2.034,0,0,1,.852-.666,3.066,3.066,0,0,1,1.26-.246,2.69,2.69,0,0,1,1.764.552,1.989,1.989,0,0,1,.72,1.512H67.38a1.128,1.128,0,0,0-.414-.828,1.544,1.544,0,0,0-1.014-.312,1.564,1.564,0,0,0-.936.252.779.779,0,0,0-.348.66.723.723,0,0,0,.21.534,1.534,1.534,0,0,0,.528.336,9.1,9.1,0,0,0,.882.282,9.5,9.5,0,0,1,1.152.378,2.015,2.015,0,0,1,.762.558,1.492,1.492,0,0,1,.33.972,1.664,1.664,0,0,1-.3.972,2,2,0,0,1-.846.678A3.024,3.024,0,0,1,66.132.108Z" transform="translate(194 148)" fill="#fff"/>
    <g id="Group_78" data-name="Group 78" transform="translate(-5)">
      <path id="Path_20" data-name="Path 20" d="M0,0H147l20,17.25L147,35H0L20,17.536Z" transform="translate(292 126)" fill="#f1f5f6"/>
      <path id="Path_7927" data-name="Path 7927" d="M5.328,0,3.336-3.42H2.016V0H.924V-8.364h2.7a3.585,3.585,0,0,1,1.6.324,2.256,2.256,0,0,1,.978.876A2.442,2.442,0,0,1,6.528-5.9a2.461,2.461,0,0,1-.5,1.524A2.434,2.434,0,0,1,4.536-3.5L6.636,0ZM2.016-4.3H3.624a1.824,1.824,0,0,0,1.332-.438A1.569,1.569,0,0,0,5.4-5.9a1.5,1.5,0,0,0-.438-1.152,1.906,1.906,0,0,0-1.338-.408H2.016Zm9.072,4.4a3.367,3.367,0,0,1-1.674-.42A2.99,2.99,0,0,1,8.238-1.506,3.661,3.661,0,0,1,7.812-3.3,3.555,3.555,0,0,1,8.25-5.082,3.018,3.018,0,0,1,9.444-6.27a3.464,3.464,0,0,1,1.692-.414,3.464,3.464,0,0,1,1.692.414,3.029,3.029,0,0,1,1.194,1.182A3.547,3.547,0,0,1,14.46-3.3a3.5,3.5,0,0,1-.45,1.794A3.119,3.119,0,0,1,12.792-.312,3.492,3.492,0,0,1,11.088.108Zm0-.96a2.306,2.306,0,0,0,1.1-.276,2.1,2.1,0,0,0,.834-.828A2.652,2.652,0,0,0,13.344-3.3a2.693,2.693,0,0,0-.312-1.344,2.043,2.043,0,0,0-.816-.822,2.277,2.277,0,0,0-1.092-.27,2.266,2.266,0,0,0-1.1.27,1.98,1.98,0,0,0-.8.822,2.781,2.781,0,0,0-.3,1.344,2.856,2.856,0,0,0,.294,1.356,1.954,1.954,0,0,0,.786.822A2.208,2.208,0,0,0,11.088-.852Zm5.9-8.028V0H15.9V-8.88Zm7.86,5.34a6.427,6.427,0,0,1-.036.66H19.56a2.126,2.126,0,0,0,.666,1.518,2.118,2.118,0,0,0,1.47.546,2.019,2.019,0,0,0,1.182-.33,1.747,1.747,0,0,0,.666-.882H24.72A2.827,2.827,0,0,1,23.664-.486,3.187,3.187,0,0,1,21.7.108a3.324,3.324,0,0,1-1.674-.42,2.973,2.973,0,0,1-1.158-1.194,3.7,3.7,0,0,1-.42-1.794,3.756,3.756,0,0,1,.408-1.788A2.864,2.864,0,0,1,20-6.27a3.411,3.411,0,0,1,1.7-.414,3.3,3.3,0,0,1,1.656.408,2.825,2.825,0,0,1,1.11,1.122A3.311,3.311,0,0,1,24.852-3.54Zm-1.128-.228a2.014,2.014,0,0,0-.276-1.074,1.8,1.8,0,0,0-.75-.684,2.339,2.339,0,0,0-1.05-.234,2.024,2.024,0,0,0-1.41.528,2.151,2.151,0,0,0-.666,1.464ZM33.9,0,31.908-3.42h-1.32V0H29.5V-8.364h2.7a3.585,3.585,0,0,1,1.6.324,2.256,2.256,0,0,1,.978.876A2.442,2.442,0,0,1,35.1-5.9a2.461,2.461,0,0,1-.5,1.524,2.434,2.434,0,0,1-1.494.876l2.1,3.5ZM30.588-4.3H32.2a1.824,1.824,0,0,0,1.332-.438,1.569,1.569,0,0,0,.444-1.17,1.5,1.5,0,0,0-.438-1.152A1.906,1.906,0,0,0,32.2-7.464H30.588Zm12.2.756a6.427,6.427,0,0,1-.036.66H37.5a2.126,2.126,0,0,0,.666,1.518,2.118,2.118,0,0,0,1.47.546,2.019,2.019,0,0,0,1.182-.33,1.747,1.747,0,0,0,.666-.882H42.66A2.827,2.827,0,0,1,41.6-.486a3.187,3.187,0,0,1-1.968.594,3.324,3.324,0,0,1-1.674-.42A2.973,2.973,0,0,1,36.8-1.506a3.7,3.7,0,0,1-.42-1.794,3.756,3.756,0,0,1,.408-1.788A2.864,2.864,0,0,1,37.938-6.27a3.411,3.411,0,0,1,1.7-.414,3.3,3.3,0,0,1,1.656.408A2.825,2.825,0,0,1,42.4-5.154,3.311,3.311,0,0,1,42.792-3.54Zm-1.128-.228a2.014,2.014,0,0,0-.276-1.074,1.8,1.8,0,0,0-.75-.684,2.339,2.339,0,0,0-1.05-.234,2.024,2.024,0,0,0-1.41.528,2.151,2.151,0,0,0-.666,1.464Zm3.66-1.74a2.1,2.1,0,0,1,.822-.876,2.541,2.541,0,0,1,1.3-.312v1.128H47.16q-1.836,0-1.836,1.992V0H44.232V-6.576h1.092ZM56.616-6.7a2.876,2.876,0,0,1,1.368.318,2.294,2.294,0,0,1,.948.954,3.185,3.185,0,0,1,.348,1.548V0H58.2V-3.72a2.131,2.131,0,0,0-.486-1.506A1.708,1.708,0,0,0,56.4-5.748a1.756,1.756,0,0,0-1.356.546,2.246,2.246,0,0,0-.5,1.578V0H53.46V-3.72a2.131,2.131,0,0,0-.486-1.506,1.708,1.708,0,0,0-1.314-.522A1.756,1.756,0,0,0,50.3-5.2a2.246,2.246,0,0,0-.5,1.578V0H48.708V-6.576H49.8v.948a2.158,2.158,0,0,1,.87-.792A2.635,2.635,0,0,1,51.876-6.7a2.846,2.846,0,0,1,1.464.372,2.27,2.27,0,0,1,.948,1.092,2.157,2.157,0,0,1,.912-1.08A2.687,2.687,0,0,1,56.616-6.7Zm5.016-.948A.718.718,0,0,1,61.1-7.86a.718.718,0,0,1-.216-.528.718.718,0,0,1,.216-.528.718.718,0,0,1,.528-.216.685.685,0,0,1,.51.216.729.729,0,0,1,.21.528.729.729,0,0,1-.21.528A.685.685,0,0,1,61.632-7.644Zm.528,1.068V0H61.068V-6.576ZM66.348.108A3.4,3.4,0,0,1,64.992-.15a2.287,2.287,0,0,1-.948-.72,1.916,1.916,0,0,1-.384-1.062h1.128a1.107,1.107,0,0,0,.462.8,1.758,1.758,0,0,0,1.086.312,1.58,1.58,0,0,0,.984-.276.843.843,0,0,0,.36-.7A.686.686,0,0,0,67.3-2.43a5.384,5.384,0,0,0-1.188-.414,8.732,8.732,0,0,1-1.194-.39,2.118,2.118,0,0,1-.792-.588,1.535,1.535,0,0,1-.33-1.026,1.555,1.555,0,0,1,.3-.924,2.034,2.034,0,0,1,.852-.666,3.066,3.066,0,0,1,1.26-.246,2.69,2.69,0,0,1,1.764.552,1.989,1.989,0,0,1,.72,1.512H67.6a1.128,1.128,0,0,0-.414-.828,1.544,1.544,0,0,0-1.014-.312,1.564,1.564,0,0,0-.936.252.779.779,0,0,0-.348.66.723.723,0,0,0,.21.534,1.534,1.534,0,0,0,.528.336A9.1,9.1,0,0,0,66.5-3.7a9.5,9.5,0,0,1,1.152.378,2.015,2.015,0,0,1,.762.558,1.492,1.492,0,0,1,.33.972,1.664,1.664,0,0,1-.3.972,2,2,0,0,1-.846.678A3.024,3.024,0,0,1,66.348.108Zm6.264,0A3.4,3.4,0,0,1,71.256-.15a2.287,2.287,0,0,1-.948-.72,1.916,1.916,0,0,1-.384-1.062h1.128a1.107,1.107,0,0,0,.462.8A1.758,1.758,0,0,0,72.6-.816a1.58,1.58,0,0,0,.984-.276.843.843,0,0,0,.36-.7.686.686,0,0,0-.384-.642,5.384,5.384,0,0,0-1.188-.414,8.731,8.731,0,0,1-1.194-.39,2.118,2.118,0,0,1-.792-.588,1.535,1.535,0,0,1-.33-1.026,1.555,1.555,0,0,1,.3-.924,2.034,2.034,0,0,1,.852-.666,3.066,3.066,0,0,1,1.26-.246,2.69,2.69,0,0,1,1.764.552,1.989,1.989,0,0,1,.72,1.512H73.86a1.128,1.128,0,0,0-.414-.828,1.544,1.544,0,0,0-1.014-.312,1.564,1.564,0,0,0-.936.252.779.779,0,0,0-.348.66.723.723,0,0,0,.21.534,1.534,1.534,0,0,0,.528.336,9.1,9.1,0,0,0,.882.282,9.5,9.5,0,0,1,1.152.378,2.015,2.015,0,0,1,.762.558,1.492,1.492,0,0,1,.33.972,1.664,1.664,0,0,1-.3.972,2,2,0,0,1-.846.678A3.024,3.024,0,0,1,72.612.108Zm4.5-7.752a.718.718,0,0,1-.528-.216.718.718,0,0,1-.216-.528.718.718,0,0,1,.216-.528.718.718,0,0,1,.528-.216.685.685,0,0,1,.51.216.729.729,0,0,1,.21.528.729.729,0,0,1-.21.528A.685.685,0,0,1,77.112-7.644Zm.528,1.068V0H76.548V-6.576ZM82.368.108a3.367,3.367,0,0,1-1.674-.42,2.99,2.99,0,0,1-1.176-1.194A3.661,3.661,0,0,1,79.092-3.3a3.555,3.555,0,0,1,.438-1.782A3.018,3.018,0,0,1,80.724-6.27a3.464,3.464,0,0,1,1.692-.414,3.464,3.464,0,0,1,1.692.414A3.029,3.029,0,0,1,85.3-5.088,3.547,3.547,0,0,1,85.74-3.3a3.5,3.5,0,0,1-.45,1.794A3.119,3.119,0,0,1,84.072-.312,3.492,3.492,0,0,1,82.368.108Zm0-.96a2.306,2.306,0,0,0,1.1-.276,2.1,2.1,0,0,0,.834-.828A2.652,2.652,0,0,0,84.624-3.3a2.693,2.693,0,0,0-.312-1.344,2.043,2.043,0,0,0-.816-.822,2.277,2.277,0,0,0-1.092-.27,2.266,2.266,0,0,0-1.1.27,1.98,1.98,0,0,0-.8.822,2.781,2.781,0,0,0-.3,1.344A2.856,2.856,0,0,0,80.5-1.944a1.954,1.954,0,0,0,.786.822A2.208,2.208,0,0,0,82.368-.852ZM90.384-6.7a2.665,2.665,0,0,1,1.944.726,2.794,2.794,0,0,1,.744,2.094V0h-1.08V-3.72A2.114,2.114,0,0,0,91.5-5.226a1.758,1.758,0,0,0-1.344-.522,1.8,1.8,0,0,0-1.374.54,2.206,2.206,0,0,0-.51,1.572V0H87.18V-6.576h1.092v.936a2.168,2.168,0,0,1,.882-.78A2.736,2.736,0,0,1,90.384-6.7Z" transform="translate(329 148)" fill="#8b8b8b"/>
    </g>
  </g>
</svg>
